{"asset":{"version":"2.0","generator":"babylon.js glTF exporter for 3ds max 2018 v1.2.24","copyright":"2017 (c) BabylonJS"},"extensionsUsed":["KHR_lights"],"scene":0,"scenes":[{"nodes":[0,1,2,3],"extensions":{"KHR_lights":{"light":0}}}],"nodes":[{"mesh":0,"translation":[0.0,0.0,0.0],"rotation":[0.0,0.0,0.0,1.0],"scale":[1.0,1.0,1.0],"name":"hay_geo"},{"mesh":1,"translation":[11.9341793,10.8078842,29.2773743],"rotation":[0.188265055,0.241952911,0.0238637477,0.951549053],"scale":[1.0,1.0,1.0],"name":"pitchfork_geo"},{"mesh":2,"translation":[0.0,0.0,0.0],"rotation":[0.0,0.0,0.0,1.0],"scale":[1.0,1.0,1.0],"name":"hay_straws_geo"},{"translation":[0.0,0.0,0.0],"rotation":[0.0,0.0,0.0,1.0],"scale":[1.0,1.0,1.0],"name":"Default light"}],"meshes":[{"primitives":[{"attributes":{"POSITION":1,"TANGENT":2,"NORMAL":3,"TEXCOORD_0":4},"indices":0,"mode":4,"material":0}],"name":"hay_geo"},{"primitives":[{"attributes":{"POSITION":6,"TANGENT":7,"NORMAL":8,"TEXCOORD_0":9},"indices":5,"mode":4,"material":0}],"name":"pitchfork_geo"},{"primitives":[{"attributes":{"POSITION":11,"TANGENT":12,"NORMAL":13,"TEXCOORD_0":14},"indices":10,"mode":4,"material":0}],"name":"hay_straws_geo"}],"accessors":[{"bufferView":0,"componentType":5123,"count":408,"type":"SCALAR","name":"accessorIndices"},{"bufferView":1,"componentType":5126,"count":408,"max":[55.44247,41.4875755,88.23049],"min":[-70.5300751,0.0,-48.05071],"type":"VEC3","name":"accessorPositions"},{"bufferView":2,"componentType":5126,"count":408,"type":"VEC4","name":"accessorTangents"},{"bufferView":1,"byteOffset":4896,"componentType":5126,"count":408,"type":"VEC3","name":"accessorNormals"},{"bufferView":3,"componentType":5126,"count":408,"type":"VEC2","name":"accessorUVs"},{"bufferView":0,"byteOffset":816,"componentType":5123,"count":1938,"type":"SCALAR","name":"accessorIndices"},{"bufferView":1,"byteOffset":9792,"componentType":5126,"count":1938,"max":[8.86513,91.24104,2.51277733],"min":[-8.865133,0.5615921,-1.45828056],"type":"VEC3","name":"accessorPositions"},{"bufferView":2,"byteOffset":6528,"componentType":5126,"count":1938,"type":"VEC4","name":"accessorTangents"},{"bufferView":1,"byteOffset":33048,"componentType":5126,"count":1938,"type":"VEC3","name":"accessorNormals"},{"bufferView":3,"byteOffset":3264,"componentType":5126,"count":1938,"type":"VEC2","name":"accessorUVs"},{"bufferView":0,"byteOffset":4692,"componentType":5123,"count":432,"type":"SCALAR","name":"accessorIndices"},{"bufferView":1,"byteOffset":56304,"componentType":5126,"count":432,"max":[55.76808,50.2134247,72.55246],"min":[-60.0243073,-3.856556,-37.4066162],"type":"VEC3","name":"accessorPositions"},{"bufferView":2,"byteOffset":37536,"componentType":5126,"count":432,"type":"VEC4","name":"accessorTangents"},{"bufferView":1,"byteOffset":61488,"componentType":5126,"count":432,"type":"VEC3","name":"accessorNormals"},{"bufferView":3,"byteOffset":18768,"componentType":5126,"count":432,"type":"VEC2","name":"accessorUVs"}],"bufferViews":[{"buffer":0,"byteLength":5556,"name":"bufferViewScalar"},{"buffer":0,"byteOffset":5556,"byteLength":66672,"byteStride":12,"name":"bufferViewFloatVec3"},{"buffer":0,"byteOffset":72228,"byteLength":44448,"byteStride":16,"name":"bufferViewFloatVec4"},{"buffer":0,"byteOffset":116676,"byteLength":22224,"byteStride":8,"name":"bufferViewFloatVec2"}],"buffers":[{"uri":"hay.bin","byteLength":138900}],"materials":[{"pbrMetallicRoughness":{"baseColorFactor":[1.0,1.0,1.0,1.0],"baseColorTexture":{"index":1,"texCoord":0},"metallicFactor":1.0,"roughnessFactor":1.0,"metallicRoughnessTexture":{"index":2,"texCoord":0}},"normalTexture":{"index":0,"texCoord":0},"emissiveFactor":[0.0,0.0,0.0],"alphaMode":"BLEND","name":"hayScene_mat"}],"textures":[{"sampler":0,"source":0,"name":"hay_normal.png"},{"sampler":1,"source":1,"name":"hay_colorhay_alpha_baseColor.png"},{"sampler":2,"source":2,"name":"hay_roughnesshay_metalness.jpg"}],"images":[{"uri":"hay_normal.png"},{"uri":"hay_colorhay_alpha_baseColor.png"},{"uri":"hay_roughnesshay_metalness.jpg"}],"samplers":[{"magFilter":9729,"minFilter":9987,"wrapS":10497,"wrapT":10497},{"magFilter":9729,"minFilter":9987,"wrapS":10497,"wrapT":10497},{"magFilter":9729,"minFilter":9987,"wrapS":10497,"wrapT":10497}],"extensions":{"KHR_lights":{"lights":[{"color":[1.0,1.0,1.0],"intensity":1.0,"type":"ambient"}]}}}