{"asset":{"version":"2.0","generator":"babylon.js glTF exporter for 3ds max 2018 v1.2.24","copyright":"2017 (c) BabylonJS"},"extensionsUsed":["KHR_lights"],"scene":0,"scenes":[{"nodes":[0,1,2,3,4,5,6,7,8],"extensions":{"KHR_lights":{"light":0}}}],"nodes":[{"mesh":0,"translation":[10.9845238,25.3985634,-2.802739E-06],"rotation":[0.0,0.0,0.0,1.0],"scale":[1.0,1.0,1.0],"name":"leg_l_geo"},{"mesh":1,"translation":[-10.9845238,25.3985634,-2.802739E-06],"rotation":[0.0,0.0,0.0,1.0],"scale":[1.0,1.0,1.0],"name":"leg_r_geo"},{"mesh":2,"translation":[-38.1776047,65.0018,5.973038E-07],"rotation":[0.0,0.0,0.0,1.0],"scale":[1.0,1.0,1.0],"name":"arm_r_geo"},{"mesh":3,"translation":[38.1776047,65.0018,-1.07162623E-06],"rotation":[0.0,0.0,0.0,1.0],"scale":[1.0,1.0,1.0],"name":"arm_l_geo"},{"mesh":4,"translation":[0.0,45.59696,-8.68345069E-07],"rotation":[0.0,0.0,0.0,1.0],"scale":[1.0,1.0,1.0],"name":"torso_geo"},{"mesh":5,"translation":[0.0,72.60894,3.81469727E-06],"rotation":[0.0,0.0,0.0,1.0],"scale":[1.0,1.0,1.0],"name":"head_geo"},{"mesh":6,"translation":[10.983387,98.5948257,-2.79726267],"rotation":[-0.04295672,-0.00757447956,-0.173482969,0.983870447],"scale":[1.0,1.0,1.0],"name":"hat_geo"},{"mesh":7,"translation":[0.0,45.59696,-8.68345069E-07],"rotation":[0.0,0.0,0.0,1.0],"scale":[1.0,1.0,1.0],"name":"coat_geo"},{"translation":[0.0,0.0,0.0],"rotation":[0.0,0.0,0.0,1.0],"scale":[1.0,1.0,1.0],"name":"Default light"}],"meshes":[{"primitives":[{"attributes":{"POSITION":1,"TANGENT":2,"NORMAL":3,"TEXCOORD_0":4},"indices":0,"mode":4,"material":0}],"name":"leg_l_geo"},{"primitives":[{"attributes":{"POSITION":6,"TANGENT":7,"NORMAL":8,"TEXCOORD_0":9},"indices":5,"mode":4,"material":0}],"name":"leg_r_geo"},{"primitives":[{"attributes":{"POSITION":11,"TANGENT":12,"NORMAL":13,"TEXCOORD_0":14},"indices":10,"mode":4,"material":0}],"name":"arm_r_geo"},{"primitives":[{"attributes":{"POSITION":16,"TANGENT":17,"NORMAL":18,"TEXCOORD_0":19},"indices":15,"mode":4,"material":0}],"name":"arm_l_geo"},{"primitives":[{"attributes":{"POSITION":21,"TANGENT":22,"NORMAL":23,"TEXCOORD_0":24},"indices":20,"mode":4,"material":0}],"name":"torso_geo"},{"primitives":[{"attributes":{"POSITION":26,"TANGENT":27,"NORMAL":28,"TEXCOORD_0":29},"indices":25,"mode":4,"material":0}],"name":"head_geo"},{"primitives":[{"attributes":{"POSITION":31,"TANGENT":32,"NORMAL":33,"TEXCOORD_0":34},"indices":30,"mode":4,"material":1}],"name":"hat_geo"},{"primitives":[{"attributes":{"POSITION":36,"TANGENT":37,"NORMAL":38,"TEXCOORD_0":39},"indices":35,"mode":4,"material":1}],"name":"coat_geo"}],"accessors":[{"bufferView":0,"componentType":5123,"count":1632,"type":"SCALAR","name":"accessorIndices"},{"bufferView":1,"componentType":5126,"count":1632,"max":[6.567274,6.49621964,6.56727552],"min":[-6.56727457,-25.3933468,-6.56727648],"type":"VEC3","name":"accessorPositions"},{"bufferView":2,"componentType":5126,"count":1632,"type":"VEC4","name":"accessorTangents"},{"bufferView":1,"byteOffset":19584,"componentType":5126,"count":1632,"type":"VEC3","name":"accessorNormals"},{"bufferView":3,"componentType":5126,"count":1632,"type":"VEC2","name":"accessorUVs"},{"bufferView":0,"byteOffset":3264,"componentType":5123,"count":1632,"type":"SCALAR","name":"accessorIndices"},{"bufferView":1,"byteOffset":39168,"componentType":5126,"count":1632,"max":[6.56727457,6.49621964,6.567274],"min":[-6.567274,-25.3933468,-6.56727934],"type":"VEC3","name":"accessorPositions"},{"bufferView":2,"byteOffset":26112,"componentType":5126,"count":1632,"type":"VEC4","name":"accessorTangents"},{"bufferView":1,"byteOffset":58752,"componentType":5126,"count":1632,"type":"VEC3","name":"accessorNormals"},{"bufferView":3,"byteOffset":13056,"componentType":5126,"count":1632,"type":"VEC2","name":"accessorUVs"},{"bufferView":0,"byteOffset":6528,"componentType":5123,"count":1632,"type":"SCALAR","name":"accessorIndices"},{"bufferView":1,"byteOffset":78336,"componentType":5126,"count":1632,"max":[6.567274,6.496216,6.567274],"min":[-6.567276,-33.82566,-6.567275],"type":"VEC3","name":"accessorPositions"},{"bufferView":2,"byteOffset":52224,"componentType":5126,"count":1632,"type":"VEC4","name":"accessorTangents"},{"bufferView":1,"byteOffset":97920,"componentType":5126,"count":1632,"type":"VEC3","name":"accessorNormals"},{"bufferView":3,"byteOffset":26112,"componentType":5126,"count":1632,"type":"VEC2","name":"accessorUVs"},{"bufferView":0,"byteOffset":9792,"componentType":5123,"count":1632,"type":"SCALAR","name":"accessorIndices"},{"bufferView":1,"byteOffset":117504,"componentType":5126,"count":1632,"max":[6.567276,6.496216,6.567275],"min":[-6.567274,-33.82566,-6.56727648],"type":"VEC3","name":"accessorPositions"},{"bufferView":2,"byteOffset":78336,"componentType":5126,"count":1632,"type":"VEC4","name":"accessorTangents"},{"bufferView":1,"byteOffset":137088,"componentType":5126,"count":1632,"type":"VEC3","name":"accessorNormals"},{"bufferView":3,"byteOffset":39168,"componentType":5126,"count":1632,"type":"VEC2","name":"accessorUVs"},{"bufferView":0,"byteOffset":13056,"componentType":5123,"count":2778,"type":"SCALAR","name":"accessorIndices"},{"bufferView":1,"byteOffset":156672,"componentType":5126,"count":2778,"max":[29.35,24.5844231,29.35],"min":[-29.35,-24.5844288,-29.3500023],"type":"VEC3","name":"accessorPositions"},{"bufferView":2,"byteOffset":104448,"componentType":5126,"count":2778,"type":"VEC4","name":"accessorTangents"},{"bufferView":1,"byteOffset":190008,"componentType":5126,"count":2778,"type":"VEC3","name":"accessorNormals"},{"bufferView":3,"byteOffset":52224,"componentType":5126,"count":2778,"type":"VEC2","name":"accessorUVs"},{"bufferView":0,"byteOffset":18612,"componentType":5123,"count":4128,"type":"SCALAR","name":"accessorIndices"},{"bufferView":1,"byteOffset":223344,"componentType":5126,"count":4128,"max":[29.30523,33.028183,29.3052254],"min":[-29.30523,0.0,-29.305233],"type":"VEC3","name":"accessorPositions"},{"bufferView":2,"byteOffset":148896,"componentType":5126,"count":4128,"type":"VEC4","name":"accessorTangents"},{"bufferView":1,"byteOffset":272880,"componentType":5126,"count":4128,"type":"VEC3","name":"accessorNormals"},{"bufferView":3,"byteOffset":74448,"componentType":5126,"count":4128,"type":"VEC2","name":"accessorUVs"},{"bufferView":0,"byteOffset":26868,"componentType":5123,"count":2400,"type":"SCALAR","name":"accessorIndices"},{"bufferView":1,"byteOffset":322416,"componentType":5126,"count":2400,"max":[18.9451485,11.8938141,18.9451447],"min":[-18.9451427,-6.754982,-18.9451485],"type":"VEC3","name":"accessorPositions"},{"bufferView":2,"byteOffset":214944,"componentType":5126,"count":2400,"type":"VEC4","name":"accessorTangents"},{"bufferView":1,"byteOffset":351216,"componentType":5126,"count":2400,"type":"VEC3","name":"accessorNormals"},{"bufferView":3,"byteOffset":107472,"componentType":5126,"count":2400,"type":"VEC2","name":"accessorUVs"},{"bufferView":0,"byteOffset":31668,"componentType":5123,"count":744,"type":"SCALAR","name":"accessorIndices"},{"bufferView":1,"byteOffset":380016,"componentType":5126,"count":744,"max":[31.42754,24.3587761,31.2825928],"min":[-31.42754,-3.25548172,-31.67568],"type":"VEC3","name":"accessorPositions"},{"bufferView":2,"byteOffset":253344,"componentType":5126,"count":744,"type":"VEC4","name":"accessorTangents"},{"bufferView":1,"byteOffset":388944,"componentType":5126,"count":744,"type":"VEC3","name":"accessorNormals"},{"bufferView":3,"byteOffset":126672,"componentType":5126,"count":744,"type":"VEC2","name":"accessorUVs"}],"bufferViews":[{"buffer":0,"byteLength":33156,"name":"bufferViewScalar"},{"buffer":0,"byteOffset":33156,"byteLength":397872,"byteStride":12,"name":"bufferViewFloatVec3"},{"buffer":0,"byteOffset":431028,"byteLength":265248,"byteStride":16,"name":"bufferViewFloatVec4"},{"buffer":0,"byteOffset":696276,"byteLength":132624,"byteStride":8,"name":"bufferViewFloatVec2"}],"buffers":[{"uri":"andy.bin","byteLength":828900}],"materials":[{"pbrMetallicRoughness":{"baseColorFactor":[1.0,1.0,1.0,1.0],"baseColorTexture":{"index":0,"texCoord":0},"metallicFactor":1.0,"roughnessFactor":1.0,"metallicRoughnessTexture":{"index":1,"texCoord":0}},"emissiveFactor":[0.0,0.0,0.0],"alphaMode":"OPAQUE","name":"andy_mat"},{"pbrMetallicRoughness":{"baseColorFactor":[1.0,1.0,1.0,1.0],"baseColorTexture":{"index":2,"texCoord":0},"metallicFactor":0.0,"roughnessFactor":0.9},"emissiveFactor":[0.0,0.0,0.0],"alphaMode":"OPAQUE","name":"clothes_mat"}],"textures":[{"sampler":0,"source":0,"name":"andy_color255_baseColor.jpg"},{"sampler":1,"source":1,"name":"andy_roughness0.jpg"},{"sampler":2,"source":2,"name":"clothes_color255_baseColor.jpg"}],"images":[{"uri":"andy_color255_baseColor.jpg"},{"uri":"andy_roughness0.jpg"},{"uri":"clothes_color255_baseColor.jpg"}],"samplers":[{"magFilter":9729,"minFilter":9987,"wrapS":10497,"wrapT":10497},{"magFilter":9729,"minFilter":9987,"wrapS":10497,"wrapT":10497},{"magFilter":9729,"minFilter":9987,"wrapS":10497,"wrapT":10497}],"extensions":{"KHR_lights":{"lights":[{"color":[1.0,1.0,1.0],"intensity":1.0,"type":"ambient"}]}}}