{"asset":{"version":"2.0","generator":"babylon.js glTF exporter for 3ds max 2018 v1.2.24","copyright":"2017 (c) BabylonJS"},"extensionsUsed":["KHR_lights"],"scene":0,"scenes":[{"nodes":[0,1,2,3,4,5,6,7,8,9,10,11,12,13,14],"extensions":{"KHR_lights":{"light":0}}}],"nodes":[{"mesh":0,"translation":[-58.97905,0.0,-0.0382413864],"rotation":[0.0,0.0,0.0,1.0],"scale":[1.0,1.0,1.0],"name":"tripod_geo"},{"mesh":1,"translation":[-55.41156,20.9689388,-0.0382413864],"rotation":[0.0,0.0,0.0,1.0],"scale":[1.0,1.0,1.0],"name":"boiler_geo"},{"mesh":2,"translation":[48.2983475,17.8978043,-0.0382413864],"rotation":[0.0,0.0,0.0,1.0],"scale":[1.0,1.0,1.0],"name":"cooler_hull_geo"},{"mesh":3,"translation":[48.71643,0.179894447,0.928422],"rotation":[0.0,0.0,0.0,1.0],"scale":[1.0,1.0,1.0],"name":"stool_geo"},{"mesh":4,"translation":[46.5791779,0.0,26.3758659],"rotation":[0.0,0.0,0.0,1.0],"scale":[1.0,1.0,1.0],"name":"bucket_geo"},{"mesh":5,"translation":[-54.2225342,0.0,3.516015],"rotation":[0.0,8.742278E-08,0.0,1.0],"scale":[1.0,1.0,1.0],"name":"stones_geo"},{"mesh":6,"translation":[-55.00879,0.0,2.00622272],"rotation":[0.0,0.0,0.0,1.0],"scale":[1.0,1.0,1.0],"name":"ashes_geo"},{"mesh":7,"translation":[29.10015,0.0,18.73476],"rotation":[0.0,0.0,0.0,1.0],"scale":[1.0,1.0,1.0],"name":"bottle_geo"},{"mesh":8,"translation":[-56.27836,5.85804558,8.50034],"rotation":[-8.742278E-08,0.0,0.0,1.0],"scale":[1.0,1.0,1.0],"name":"firewood_geo"},{"mesh":9,"translation":[48.6978455,34.3326149,-0.04148388],"rotation":[0.0,0.0,0.0,1.0],"scale":[1.0,1.0,1.0],"name":"pipe_geo"},{"mesh":10,"translation":[48.2983475,20.01728,21.0811272],"rotation":[-4.371139E-08,4.371139E-08,-4.371139E-08,1.0],"scale":[1.0,1.0,1.0],"name":"faucet_geo"},{"mesh":11,"translation":[-10.109251,-0.0818738937,-7.93594646],"rotation":[0.0,0.0,0.0,1.0],"scale":[1.0,1.0,1.0],"name":"wood_geo"},{"mesh":12,"translation":[46.5791779,0.0,26.3758659],"rotation":[0.0,0.0,0.0,1.0],"scale":[1.0,1.0,1.0],"name":"cheeseCloth_geo"},{"mesh":13,"translation":[48.2983475,17.8978043,-0.0382413864],"rotation":[0.0,0.0,0.0,1.0],"scale":[1.0,1.0,1.0],"name":"cooler_water_geo"},{"translation":[0.0,0.0,0.0],"rotation":[0.0,0.0,0.0,1.0],"scale":[1.0,1.0,1.0],"name":"Default light"}],"meshes":[{"primitives":[{"attributes":{"POSITION":1,"TANGENT":2,"NORMAL":3,"TEXCOORD_0":4},"indices":0,"mode":4,"material":0}],"name":"tripod_geo"},{"primitives":[{"attributes":{"POSITION":6,"TANGENT":7,"NORMAL":8,"TEXCOORD_0":9},"indices":5,"mode":4,"material":0}],"name":"boiler_geo"},{"primitives":[{"attributes":{"POSITION":11,"TANGENT":12,"NORMAL":13,"TEXCOORD_0":14},"indices":10,"mode":4,"material":0}],"name":"cooler_hull_geo"},{"primitives":[{"attributes":{"POSITION":16,"TANGENT":17,"NORMAL":18,"TEXCOORD_0":19},"indices":15,"mode":4,"material":0}],"name":"stool_geo"},{"primitives":[{"attributes":{"POSITION":21,"TANGENT":22,"NORMAL":23,"TEXCOORD_0":24},"indices":20,"mode":4,"material":0}],"name":"bucket_geo"},{"primitives":[{"attributes":{"POSITION":26,"TANGENT":27,"NORMAL":28,"TEXCOORD_0":29},"indices":25,"mode":4,"material":0}],"name":"stones_geo"},{"primitives":[{"attributes":{"POSITION":31,"TANGENT":32,"NORMAL":33,"TEXCOORD_0":34},"indices":30,"mode":4,"material":1}],"name":"ashes_geo"},{"primitives":[{"attributes":{"POSITION":36,"TANGENT":37,"NORMAL":38,"TEXCOORD_0":39},"indices":35,"mode":4,"material":2}],"name":"bottle_geo"},{"primitives":[{"attributes":{"POSITION":41,"TANGENT":42,"NORMAL":43,"TEXCOORD_0":44},"indices":40,"mode":4,"material":1}],"name":"firewood_geo"},{"primitives":[{"attributes":{"POSITION":46,"TANGENT":47,"NORMAL":48,"TEXCOORD_0":49},"indices":45,"mode":4,"material":0}],"name":"pipe_geo"},{"primitives":[{"attributes":{"POSITION":51,"TANGENT":52,"NORMAL":53,"TEXCOORD_0":54},"indices":50,"mode":4,"material":0}],"name":"faucet_geo"},{"primitives":[{"attributes":{"POSITION":56,"TANGENT":57,"NORMAL":58,"TEXCOORD_0":59},"indices":55,"mode":4,"material":0}],"name":"wood_geo"},{"primitives":[{"attributes":{"POSITION":61,"TANGENT":62,"NORMAL":63,"TEXCOORD_0":64},"indices":60,"mode":4,"material":0}],"name":"cheeseCloth_geo"},{"primitives":[{"attributes":{"POSITION":66,"TANGENT":67,"NORMAL":68,"TEXCOORD_0":69},"indices":65,"mode":4,"material":3}],"name":"cooler_water_geo"}],"accessors":[{"bufferView":0,"componentType":5123,"count":684,"type":"SCALAR","name":"accessorIndices"},{"bufferView":1,"componentType":5126,"count":684,"max":[22.3566589,20.8368187,21.4641953],"min":[-25.2286224,0.0,-26.3812828],"type":"VEC3","name":"accessorPositions"},{"bufferView":2,"componentType":5126,"count":684,"type":"VEC4","name":"accessorTangents"},{"bufferView":1,"byteOffset":8208,"componentType":5126,"count":684,"type":"VEC3","name":"accessorNormals"},{"bufferView":3,"componentType":5126,"count":684,"type":"VEC2","name":"accessorUVs"},{"bufferView":0,"byteOffset":1368,"componentType":5123,"count":2160,"type":"SCALAR","name":"accessorIndices"},{"bufferView":1,"byteOffset":16416,"componentType":5126,"count":2160,"max":[19.8351135,55.64498,19.8351173],"min":[-19.8351135,0.0,-19.8351135],"type":"VEC3","name":"accessorPositions"},{"bufferView":2,"byteOffset":10944,"componentType":5126,"count":2160,"type":"VEC4","name":"accessorTangents"},{"bufferView":1,"byteOffset":42336,"componentType":5126,"count":2160,"type":"VEC3","name":"accessorNormals"},{"bufferView":3,"byteOffset":5472,"componentType":5126,"count":2160,"type":"VEC2","name":"accessorUVs"},{"bufferView":0,"byteOffset":5688,"componentType":5123,"count":576,"type":"SCALAR","name":"accessorIndices"},{"bufferView":1,"byteOffset":68256,"componentType":5126,"count":576,"max":[17.1444626,41.63976,17.1444664],"min":[-17.1444645,0.0,-17.1444626],"type":"VEC3","name":"accessorPositions"},{"bufferView":2,"byteOffset":45504,"componentType":5126,"count":576,"type":"VEC4","name":"accessorTangents"},{"bufferView":1,"byteOffset":75168,"componentType":5126,"count":576,"type":"VEC3","name":"accessorNormals"},{"bufferView":3,"byteOffset":22752,"componentType":5126,"count":576,"type":"VEC2","name":"accessorUVs"},{"bufferView":0,"byteOffset":6840,"componentType":5123,"count":228,"type":"SCALAR","name":"accessorIndices"},{"bufferView":1,"byteOffset":82080,"componentType":5126,"count":228,"max":[17.1263657,17.718441,10.8199043],"min":[-17.1263638,-0.14385128,-10.8199043],"type":"VEC3","name":"accessorPositions"},{"bufferView":2,"byteOffset":54720,"componentType":5126,"count":228,"type":"VEC4","name":"accessorTangents"},{"bufferView":1,"byteOffset":84816,"componentType":5126,"count":228,"type":"VEC3","name":"accessorNormals"},{"bufferView":3,"byteOffset":27360,"componentType":5126,"count":228,"type":"VEC2","name":"accessorUVs"},{"bufferView":0,"byteOffset":7296,"componentType":5123,"count":96,"type":"SCALAR","name":"accessorIndices"},{"bufferView":1,"byteOffset":87552,"componentType":5126,"count":96,"max":[8.512749,17.3941078,8.512745],"min":[-8.512749,0.0,-8.512747],"type":"VEC3","name":"accessorPositions"},{"bufferView":2,"byteOffset":58368,"componentType":5126,"count":96,"type":"VEC4","name":"accessorTangents"},{"bufferView":1,"byteOffset":88704,"componentType":5126,"count":96,"type":"VEC3","name":"accessorNormals"},{"bufferView":3,"byteOffset":29184,"componentType":5126,"count":96,"type":"VEC2","name":"accessorUVs"},{"bufferView":0,"byteOffset":7488,"componentType":5123,"count":1200,"type":"SCALAR","name":"accessorIndices"},{"bufferView":1,"byteOffset":89856,"componentType":5126,"count":1200,"max":[26.91892,3.80467844,25.70224],"min":[-27.5249939,-0.0335162878,-26.610096],"type":"VEC3","name":"accessorPositions"},{"bufferView":2,"byteOffset":59904,"componentType":5126,"count":1200,"type":"VEC4","name":"accessorTangents"},{"bufferView":1,"byteOffset":104256,"componentType":5126,"count":1200,"type":"VEC3","name":"accessorNormals"},{"bufferView":3,"byteOffset":29952,"componentType":5126,"count":1200,"type":"VEC2","name":"accessorUVs"},{"bufferView":0,"byteOffset":9888,"componentType":5123,"count":288,"type":"SCALAR","name":"accessorIndices"},{"bufferView":1,"byteOffset":118656,"componentType":5126,"count":288,"max":[23.4570637,6.8911047,23.4570656],"min":[-23.4570618,0.0,-23.4570618],"type":"VEC3","name":"accessorPositions"},{"bufferView":2,"byteOffset":79104,"componentType":5126,"count":288,"type":"VEC4","name":"accessorTangents"},{"bufferView":1,"byteOffset":122112,"componentType":5126,"count":288,"type":"VEC3","name":"accessorNormals"},{"bufferView":3,"byteOffset":39552,"componentType":5126,"count":288,"type":"VEC2","name":"accessorUVs"},{"bufferView":0,"byteOffset":10464,"componentType":5123,"count":1728,"type":"SCALAR","name":"accessorIndices"},{"bufferView":1,"byteOffset":125568,"componentType":5126,"count":1728,"max":[2.93135262,15.0297,2.93135071],"min":[-2.93135071,0.0,-2.93135071],"type":"VEC3","name":"accessorPositions"},{"bufferView":2,"byteOffset":83712,"componentType":5126,"count":1728,"type":"VEC4","name":"accessorTangents"},{"bufferView":1,"byteOffset":146304,"componentType":5126,"count":1728,"type":"VEC3","name":"accessorNormals"},{"bufferView":3,"byteOffset":41856,"componentType":5126,"count":1728,"type":"VEC2","name":"accessorUVs"},{"bufferView":0,"byteOffset":13920,"componentType":5123,"count":384,"type":"SCALAR","name":"accessorIndices"},{"bufferView":1,"byteOffset":167040,"componentType":5126,"count":384,"max":[14.4561081,5.222379,5.39672852],"min":[-12.0279541,-7.134766,-22.8318],"type":"VEC3","name":"accessorPositions"},{"bufferView":2,"byteOffset":111360,"componentType":5126,"count":384,"type":"VEC4","name":"accessorTangents"},{"bufferView":1,"byteOffset":171648,"componentType":5126,"count":384,"type":"VEC3","name":"accessorNormals"},{"bufferView":3,"byteOffset":55680,"componentType":5126,"count":384,"type":"VEC2","name":"accessorUVs"},{"bufferView":0,"byteOffset":14688,"componentType":5123,"count":5616,"type":"SCALAR","name":"accessorIndices"},{"bufferView":1,"byteOffset":176256,"componentType":5126,"count":5616,"max":[12.1416054,63.66615,12.1416473],"min":[-105.483772,-0.880001068,-12.1416035],"type":"VEC3","name":"accessorPositions"},{"bufferView":2,"byteOffset":117504,"componentType":5126,"count":5616,"type":"VEC4","name":"accessorTangents"},{"bufferView":1,"byteOffset":243648,"componentType":5126,"count":5616,"type":"VEC3","name":"accessorNormals"},{"bufferView":3,"byteOffset":58752,"componentType":5126,"count":5616,"type":"VEC2","name":"accessorUVs"},{"bufferView":0,"byteOffset":25920,"componentType":5123,"count":480,"type":"SCALAR","name":"accessorIndices"},{"bufferView":1,"byteOffset":311040,"componentType":5126,"count":480,"max":[1.67285538,3.76540756,2.90780067],"min":[-1.672863,0.0,-4.258545],"type":"VEC3","name":"accessorPositions"},{"bufferView":2,"byteOffset":207360,"componentType":5126,"count":480,"type":"VEC4","name":"accessorTangents"},{"bufferView":1,"byteOffset":316800,"componentType":5126,"count":480,"type":"VEC3","name":"accessorNormals"},{"bufferView":3,"byteOffset":103680,"componentType":5126,"count":480,"type":"VEC2","name":"accessorUVs"},{"bufferView":0,"byteOffset":26880,"componentType":5123,"count":288,"type":"SCALAR","name":"accessorIndices"},{"bufferView":1,"byteOffset":322560,"componentType":5126,"count":288,"max":[11.0804977,11.35951,19.153183],"min":[-11.0804958,2.38418579E-07,-19.1531754],"type":"VEC3","name":"accessorPositions"},{"bufferView":2,"byteOffset":215040,"componentType":5126,"count":288,"type":"VEC4","name":"accessorTangents"},{"bufferView":1,"byteOffset":326016,"componentType":5126,"count":288,"type":"VEC3","name":"accessorNormals"},{"bufferView":3,"byteOffset":107520,"componentType":5126,"count":288,"type":"VEC2","name":"accessorUVs"},{"bufferView":0,"byteOffset":27456,"componentType":5123,"count":432,"type":"SCALAR","name":"accessorIndices"},{"bufferView":1,"byteOffset":329472,"componentType":5126,"count":432,"max":[10.2411118,17.8187389,9.356873],"min":[-10.5172119,10.5762672,-9.356785],"type":"VEC3","name":"accessorPositions"},{"bufferView":2,"byteOffset":219648,"componentType":5126,"count":432,"type":"VEC4","name":"accessorTangents"},{"bufferView":1,"byteOffset":334656,"componentType":5126,"count":432,"type":"VEC3","name":"accessorNormals"},{"bufferView":3,"byteOffset":109824,"componentType":5126,"count":432,"type":"VEC2","name":"accessorUVs"},{"bufferView":0,"byteOffset":28320,"componentType":5123,"count":216,"type":"SCALAR","name":"accessorIndices"},{"bufferView":1,"byteOffset":339840,"componentType":5126,"count":216,"max":[16.7410126,37.6365623,16.7410126],"min":[-16.7410126,37.30171,-16.7410126],"type":"VEC3","name":"accessorPositions"},{"bufferView":2,"byteOffset":226560,"componentType":5126,"count":216,"type":"VEC4","name":"accessorTangents"},{"bufferView":1,"byteOffset":342432,"componentType":5126,"count":216,"type":"VEC3","name":"accessorNormals"},{"bufferView":3,"byteOffset":113280,"componentType":5126,"count":216,"type":"VEC2","name":"accessorUVs"}],"bufferViews":[{"buffer":0,"byteLength":28752,"name":"bufferViewScalar"},{"buffer":0,"byteOffset":28752,"byteLength":345024,"byteStride":12,"name":"bufferViewFloatVec3"},{"buffer":0,"byteOffset":373776,"byteLength":230016,"byteStride":16,"name":"bufferViewFloatVec4"},{"buffer":0,"byteOffset":603792,"byteLength":115008,"byteStride":8,"name":"bufferViewFloatVec2"}],"buffers":[{"uri":"distillery.bin","byteLength":718800}],"materials":[{"pbrMetallicRoughness":{"baseColorFactor":[1.0,1.0,1.0,1.0],"baseColorTexture":{"index":0,"texCoord":0},"metallicFactor":1.0,"roughnessFactor":1.0,"metallicRoughnessTexture":{"index":1,"texCoord":0}},"emissiveFactor":[0.0,0.0,0.0],"alphaMode":"OPAQUE","name":"distiller_mat"},{"pbrMetallicRoughness":{"baseColorFactor":[1.0,1.0,1.0,1.0],"baseColorTexture":{"index":3,"texCoord":0},"metallicFactor":0.0,"roughnessFactor":1.0},"emissiveTexture":{"index":2,"texCoord":0},"emissiveFactor":[1.0,1.0,1.0],"alphaMode":"OPAQUE","name":"fire_mat"},{"pbrMetallicRoughness":{"baseColorFactor":[0.019150164,0.266187042,0.068913,0.199999928],"metallicFactor":0.0,"roughnessFactor":0.0},"emissiveFactor":[0.0,0.0,0.0],"alphaMode":"BLEND","name":"glass_mat"},{"pbrMetallicRoughness":{"baseColorFactor":[0.0431654677,0.0323500857,0.0285699479,0.6],"metallicFactor":0.0,"roughnessFactor":0.0},"emissiveFactor":[0.0,0.0,0.0],"alphaMode":"BLEND","name":"water_mat"}],"textures":[{"sampler":0,"source":0,"name":"distillery_color255_baseColor.jpg"},{"sampler":1,"source":1,"name":"distillery_roughnessdistillery_metalic.jpg"},{"sampler":2,"source":2,"name":"fire_emission.png"},{"sampler":3,"source":3,"name":"fire_color255_baseColor.jpg"}],"images":[{"uri":"distillery_color255_baseColor.jpg"},{"uri":"distillery_roughnessdistillery_metalic.jpg"},{"uri":"fire_emission.png"},{"uri":"fire_color255_baseColor.jpg"}],"samplers":[{"magFilter":9729,"minFilter":9987,"wrapS":10497,"wrapT":10497},{"magFilter":9729,"minFilter":9987,"wrapS":10497,"wrapT":10497},{"magFilter":9729,"minFilter":9987,"wrapS":10497,"wrapT":10497},{"magFilter":9729,"minFilter":9987,"wrapS":10497,"wrapT":10497}],"extensions":{"KHR_lights":{"lights":[{"color":[1.0,1.0,1.0],"intensity":1.0,"type":"ambient"}]}}}